<?xml version="1.0" encoding="UTF-8" standalone="no"?>
<svg
   data-name="Layer 1"
   width="727.48999"
   height="721.33533"
   viewBox="0 0 727.48999 721.33535"
   version="1.1"
   id="svg429"
   sodipodi:docname="undraw_podcast_re_wr88.svg"
   xmlns:inkscape="http://www.inkscape.org/namespaces/inkscape"
   xmlns:sodipodi="http://sodipodi.sourceforge.net/DTD/sodipodi-0.dtd"
   xmlns="http://www.w3.org/2000/svg"
   xmlns:svg="http://www.w3.org/2000/svg">
  <defs
     id="defs433" />
  <sodipodi:namedview
     id="namedview431"
     pagecolor="#ffffff"
     bordercolor="#666666"
     borderopacity="1.0"
     inkscape:showpageshadow="2"
     inkscape:pageopacity="0.0"
     inkscape:pagecheckerboard="0"
     inkscape:deskcolor="#d1d1d1"
     showgrid="false" />
  <path
     d="M 299.29157,415.13067 V 614.27761 H 452.44258 V 415.13067 a 7.3495864,6.6952251 0 0 0 -5.17962,-6.40778 6.7667251,6.1642581 0 0 0 -2.19542,-0.31063 H 306.6879 a 7.3821805,6.7249172 0 0 0 -7.39633,6.71841 z m 59.76826,68.42752 a 16.349626,14.893958 0 0 1 32.69789,0 v 23.10701 a 16.349129,14.893504 0 0 1 -32.69789,0 z"
     fill="#cccccc"
     id="path361"
     style="stroke-width:2.37475" />
  <path
     d="m 298.82266,607.90871 v 19.20402 a 4.148452,3.7790997 0 0 0 4.11384,3.76704 h 145.86121 a 4.1345684,3.7664523 0 0 0 4.11387,-3.76704 v -19.20402 z"
     fill="#3f3d56"
     id="path363"
     style="stroke-width:2.37475" />
  <path
     d="M 58.363574,115.08996 V 478.7039 a 19.199068,17.489703 0 0 0 19.183867,17.47583 H 669.04958 A 19.198969,17.489612 0 0 0 688.23345,478.7039 V 115.08996 A 19.208299,17.498112 0 0 0 669.04958,97.633441 H 77.54749 A 19.208399,17.498203 0 0 0 58.363574,115.08996 Z"
     fill="#cccccc"
     id="path365"
     style="stroke-width:2.37475" />
  <path
     d="m 72.239934,119.61417 v 354.60425 a 10.270462,9.3560438 0 0 0 10.252701,9.33986 H 664.12574 a 10.270387,9.3559758 0 0 0 10.2527,-9.33986 V 119.61417 a 10.275015,9.3601916 0 0 0 -10.2527,-9.35931 H 82.492635 a 10.27509,9.3602596 0 0 0 -10.252701,9.35931 z"
     fill="#ffffff"
     id="path367"
     style="stroke-width:2.37475" />
  <path
     d="m 192.62157,629.57869 a 6.2846814,5.7251325 0 0 0 4.94519,2.15533 h 346.03415 a 6.3674354,5.8005187 0 0 0 6.22407,-6.99029 l -5.37152,-23.24282 a 6.3789553,5.8110129 0 0 0 -3.96464,-4.2137 6.1697313,5.6204169 0 0 0 -2.25944,-0.38826 H 202.91696 a 6.1691591,5.6198956 0 0 0 -2.25944,0.38826 6.3783333,5.8104463 0 0 0 -3.96463,4.2137 l -5.37152,23.24282 a 6.3625339,5.7960536 0 0 0 1.3002,4.83496 z"
     fill="#f2f2f2"
     id="path369"
     style="stroke-width:2.37475" />
  <path
     d="M 645.2499,159.10322 H 101.01814 a 2.1647678,1.9720304 0 0 1 0,-3.94311 H 645.2499 a 2.1647678,1.9720304 0 0 1 0,3.94311 z"
     fill="#3f3d56"
     id="path371"
     style="stroke-width:2.37475" />
  <ellipse
     cx="138.06467"
     cy="133.28188"
     rx="12.683567"
     ry="11.811806"
     fill="#3f3d56"
     id="ellipse373"
     style="stroke-width:2.37475" />
  <ellipse
     cx="181.8806"
     cy="133.28188"
     rx="12.683567"
     ry="11.811806"
     fill="#3f3d56"
     id="ellipse375"
     style="stroke-width:2.37475" />
  <ellipse
     cx="225.69655"
     cy="133.28188"
     rx="12.683567"
     ry="11.811806"
     fill="#3f3d56"
     id="ellipse377"
     style="stroke-width:2.37475" />
  <path
     d="m 618.86541,124.39095 h -31.1204 a 2.355978,2.1462164 0 0 0 0,4.29132 h 31.1204 a 2.3555799,2.1458537 0 0 0 0,-4.29132 z"
     fill="#3f3d56"
     id="path379"
     style="stroke-width:2.37475" />
  <path
     d="m 618.86541,132.44929 h -31.1204 a 2.3559282,2.1461711 0 0 0 0,4.29121 h 31.1204 a 2.3555301,2.1458084 0 0 0 0,-4.29121 z"
     fill="#3f3d56"
     id="path381"
     style="stroke-width:2.37475" />
  <path
     d="m 618.86541,140.50754 h -31.1204 a 2.355978,2.1462164 0 0 0 0,4.29132 h 31.1204 a 2.3555799,2.1458537 0 0 0 0,-4.29132 z"
     fill="#3f3d56"
     id="path383"
     style="stroke-width:2.37475" />
  <rect
     x="337.00809"
     y="266.28757"
     width="108.10989"
     height="21.059732"
     rx="8.1215677"
     fill="#fad139"
     id="rect385"
     style="stroke-width:2.37475" />
  <rect
     x="282.10278"
     y="308.40707"
     width="217.92052"
     height="21.059732"
     rx="8.1215677"
     fill="#fad139"
     id="rect387"
     style="stroke-width:2.37475" />
  <rect
     x="282.10278"
     y="350.52658"
     width="217.92052"
     height="21.059732"
     rx="8.1215677"
     fill="#fad139"
     id="rect389"
     style="stroke-width:2.37475" />
</svg>
